<?xml version="1.0" encoding="utf-8"?>
<!-- Generator: Adobe Illustrator 28.2.0, SVG Export Plug-In . SVG Version: 6.00 Build 0)  -->
<svg version="1.1" id="Layer_1" xmlns="http://www.w3.org/2000/svg" xmlns:xlink="http://www.w3.org/1999/xlink" x="0px" y="0px"
	 width="80.8px" height="41.3px" viewBox="0 0 80.8 41.3" style="enable-background:new 0 0 80.8 41.3;" xml:space="preserve">
<style type="text/css">
	.st0{fill:#F2F2F2;}
</style>
<g>
	<path class="st0" d="M26.6,24c-3.2,0-11.4,0-11.4,0c-2.5,0-4.3-0.6-5.4-1.9C8.6,20.9,8,18.9,8,16.1V14l24.5,0
		c1.2,0,2.5,0.1,3.7,0.3c1.2,0.2,2.2,0.5,3,0.8c0.8,0.3,1.5,0.8,2.1,1.5c0,0,0,0,0,0c2.3,2.5,3.6,5.8,3.6,9.2v0c0,0.8,0,1.6-0.1,2.4
		c-0.3,3.1-1.9,6.1-4.8,9c-0.6,0.6-1.3,1.2-2.2,1.7c-2.5,1.5-5.3,2.1-8.2,2.1L0.4,41l3.1-11.2l22.4,0.1c2.9,0,2.9-1.2,2.9-2.8
		C28.8,25.3,28.9,24,26.6,24z M50,0.2L47.4,10H9c0.8-2.4,2.3-4.6,4.4-6.5c2.4-2.2,4.9-3.3,7.5-3.3H50z"/>
	<path class="st0" d="M37,24.3L45.9,14h28.8l5.7,27.1H70.2c-2.7,0-5.1-1.9-5.8-4.5l0,0c-1.8-7.2-8.3-12.3-15.8-12.3L37,24.3z
		 M48.2,10l8.8-9.8h14.8l2.2,9.8H48.2z"/>
</g>
</svg>
